<?xml version="1.0" encoding="UTF-8"?>
<svg version="1.1" xmlns="http://www.w3.org/2000/svg" width="512" height="512">
<path d="M0 0 C0.77662748 -0.00205263 1.55325495 -0.00410527 2.35341659 -0.0062201 C4.9773091 -0.0119117 7.60114948 -0.0104302 10.22504711 -0.00901413 C12.11664411 -0.01159652 14.00824055 -0.01460933 15.89983624 -0.01801753 C21.11479962 -0.02610548 26.32974924 -0.0278781 31.54471815 -0.028615 C37.16242333 -0.03046242 42.78012133 -0.03800815 48.39782238 -0.04475021 C60.68897695 -0.0583465 72.98012827 -0.06436019 85.27128911 -0.06876087 C92.94145512 -0.07152094 100.61161986 -0.07575784 108.28178501 -0.08026505 C129.50561269 -0.09245909 150.72943903 -0.10279374 171.95326996 -0.10614014 C173.32601625 -0.10636177 174.69876254 -0.10658355 176.07150884 -0.10680549 C177.44759376 -0.10702613 178.82367868 -0.10724661 180.1997636 -0.10746694 C182.96048534 -0.10790949 185.72120708 -0.10835661 188.48192883 -0.10880661 C189.16642841 -0.108916 189.85092799 -0.10902539 190.55616999 -0.1091381 C212.75652774 -0.11276961 234.95685285 -0.12869307 257.1571981 -0.15199697 C280.62166774 -0.17658287 304.08611209 -0.19030566 327.55059689 -0.19150805 C340.3442928 -0.19242597 353.13794597 -0.19820748 365.93163013 -0.21632767 C376.8240054 -0.23170028 387.71632473 -0.23686592 398.60870878 -0.22858956 C404.16887171 -0.22467306 409.7289219 -0.22566133 415.28907108 -0.23964691 C420.37614412 -0.25232587 425.463019 -0.2512414 430.55009153 -0.2390562 C432.39330152 -0.23708875 434.23652526 -0.24022562 436.07971589 -0.24890056 C438.58037418 -0.25992746 441.08032502 -0.25255176 443.58096313 -0.24050903 C444.66062553 -0.25190182 444.66062553 -0.25190182 445.7620993 -0.26352477 C450.39542671 -0.21517714 453.54141165 0.69983693 457.47924328 3.13142776 C460.91440508 6.93795841 462.61017604 9.30851305 462.58159542 14.40452003 C462.57905278 15.3067846 462.57651014 16.20904916 462.57389045 17.13865507 C462.566001 18.1362905 462.55811155 19.13392594 462.54998302 20.16179276 C462.54574865 21.21675843 462.54151427 22.2717241 462.53715158 23.35865843 C462.52725656 25.68109831 462.51504436 28.00352913 462.50086689 30.32594681 C462.46979276 35.42603846 462.44968086 40.52615887 462.42861223 45.6263001 C462.41725542 48.37427068 462.40506046 51.1222358 462.39223623 53.87019992 C462.34569928 63.97107685 462.32049897 74.07186628 462.30816174 84.17284012 C462.30723966 84.90321367 462.30631758 85.63358722 462.30536756 86.3860933 C462.29693034 93.17106612 462.28986554 99.95604014 462.28350496 106.7410152 C462.27905326 111.39638164 462.27380785 116.05174664 462.2678175 120.70711136 C462.26634011 121.86703303 462.26634011 121.86703303 462.26483288 123.05038746 C462.24759619 135.5616063 462.18742832 148.07228292 462.11219785 160.58327131 C462.03599262 173.43400933 462.00943839 186.28418483 462.02773023 199.13513815 C462.03738777 207.0575735 462.00826977 214.97790097 461.92877814 222.89995177 C461.87182259 228.98269958 461.88371572 235.06336518 461.92073536 241.14634705 C461.92516976 243.63438564 461.90749124 246.12258067 461.86565495 248.61027145 C461.14213332 262.195922 461.14213332 262.195922 466.3255949 274.21451569 C469.41763934 277.34358411 472.81134801 279.71903451 476.47924328 282.13142776 C477.93873095 283.37694748 479.38302735 284.6412601 480.79174328 285.94392776 C482.75659648 287.64958756 484.72930765 289.34551796 486.70580578 291.03767776 C487.43541515 291.66674026 488.16502453 292.29580276 488.91674328 292.94392776 C489.57545422 293.50724808 490.23416515 294.07056839 490.91283703 294.65095901 C493.38377229 296.98633174 493.74929901 298.95672749 493.97924328 302.25642776 C493.88407166 307.23707602 492.21207294 309.49972962 488.78783703 312.97908401 C488.02600109 313.68935745 487.26416515 314.39963089 486.47924328 315.13142776 C485.58334484 315.9757637 484.6874464 316.82009964 483.76439953 317.69002151 C481.22486091 320.05550282 478.65113548 322.38094812 476.06859875 324.69929886 C473.47940399 327.03235822 470.91880317 329.39637031 468.35424328 331.75642776 C463.94212642 335.80578796 459.49873773 339.81906095 455.04174328 343.81892776 C452.17323919 346.4075778 449.32447677 349.01727922 446.47924328 351.63142776 C442.03193213 355.71753598 437.55726692 359.77126144 433.05736828 363.79939651 C431.15763189 365.51779443 429.27410522 367.24763229 427.40111828 368.99470901 C426.87389172 369.48455276 426.34666515 369.97439651 425.80346203 370.47908401 C424.31231108 371.86663142 422.82533869 373.25866544 421.33861828 374.65095901 C416.56104376 378.79543964 412.87980642 381.93042636 406.44408703 381.58455276 C402.74535261 380.73156431 401.02737944 378.92816258 398.47924328 376.13142776 C397.53933862 372.74264869 397.36009182 369.55311517 397.38158703 366.04939651 C397.38480968 365.11804886 397.38803234 364.1867012 397.39135265 363.22713089 C397.39973156 362.26742386 397.40811047 361.30771683 397.41674328 360.31892776 C397.421255 359.3398848 397.42576672 358.36084183 397.43041515 357.35213089 C397.44215644 354.94516666 397.45857909 352.5383292 397.47924328 350.13142776 C351.9071446 349.08639238 309.88725463 369.91654599 277.47924328 400.75642776 C267.86288756 410.60694799 259.89953318 422.11643041 252.46166515 433.66145706 C251.48954163 435.16590458 250.48768863 436.65108171 249.47924328 438.13142776 C249.14924328 438.13142776 248.81924328 438.13142776 248.47924328 438.13142776 C248.40212141 431.60684812 248.35020274 425.08238921 248.31444836 418.55745316 C248.29951679 416.34549442 248.27916417 414.13356446 248.25292492 411.92171097 C248.09948462 398.63859503 248.45854596 386.09671858 251.47924328 373.13142776 C251.69314709 372.19371536 251.9070509 371.25600296 252.12743664 370.28987503 C254.57341215 360.37485057 258.21141607 351.15036019 262.69408703 341.99080276 C263.15553112 341.03544632 263.61697521 340.08008987 264.09240246 339.09578323 C265.21593428 336.77163586 266.34491546 334.45031979 267.47924328 332.13142776 C266.89962994 332.13256693 266.32001661 332.13370609 265.72283924 332.13487977 C231.37707598 332.20200094 197.03132582 332.25348084 162.68551093 332.28462375 C158.56239295 332.28837591 154.43927511 332.29225888 150.31615734 332.29622269 C149.49531214 332.29700962 148.67446694 332.29779655 147.82874765 332.29860733 C134.53436873 332.31166443 121.2400287 332.33531996 107.94567285 332.36288615 C94.30639663 332.39093187 80.66714079 332.40760226 67.02783692 332.41369325 C58.61034199 332.41781142 50.19295695 332.43082255 41.77549584 332.45517717 C36.00483798 332.47102406 30.234237 332.4758305 24.46355896 332.4719319 C21.1331592 332.47000868 17.80310668 332.47461049 14.47271442 332.48904419 C10.86193323 332.5039285 7.25162558 332.50039575 3.64083385 332.49219131 C2.58830012 332.50092984 1.53576639 332.50966836 0.4513377 332.51867169 C-4.95449658 332.48537909 -8.88164682 332.23615092 -13.52075672 329.13142776 C-17.28450866 324.96078372 -18.6444508 322.58422779 -18.6549778 317.02947235 C-18.66166456 315.39882037 -18.66166456 315.39882037 -18.66848642 313.73522592 C-18.66830205 312.53116845 -18.66811769 311.32711098 -18.66792774 310.08656693 C-18.67160443 308.81502313 -18.67528112 307.54347934 -18.67906922 306.23340392 C-18.6891056 302.6922137 -18.69280864 299.15104044 -18.69545853 295.60983801 C-18.69935675 291.79512782 -18.70893542 287.98043112 -18.71767139 284.16572952 C-18.73744961 274.94732555 -18.74750379 265.72892045 -18.75639918 256.51050055 C-18.76077991 252.17183906 -18.76614728 247.8331788 -18.77138805 243.49451828 C-18.78840178 229.07594557 -18.80289659 214.65737363 -18.8101368 200.23879242 C-18.81204676 196.49564742 -18.81396708 192.75250243 -18.81592274 189.00935745 C-18.81640648 188.07899051 -18.81689022 187.14862357 -18.81738862 186.19006369 C-18.82569125 171.11426656 -18.85103146 156.03854872 -18.88350341 140.96278623 C-18.9165534 125.49282257 -18.93458369 110.02289923 -18.93778104 94.55290008 C-18.93994806 85.86381856 -18.94872474 77.17485267 -18.97424221 68.48580551 C-18.99592111 61.08664342 -19.00401354 53.68762502 -18.99427543 46.28843477 C-18.9897225 42.51246837 -18.99167414 38.7367986 -19.01103687 34.96087265 C-19.03184156 30.86844615 -19.02170982 26.77668101 -19.00850391 22.68422318 C-19.01947316 21.48908859 -19.03044241 20.29395401 -19.04174405 19.06260324 C-18.99266361 12.78500762 -18.79607581 8.87597874 -14.52075672 4.13142776 C-9.97706586 0.13848731 -5.82569864 -0.01418331 0 0 Z " fill="#FE7149" transform="translate(18.520756721496582,36.86857223510742)"/>
<path d="M0 0 C27.79849179 -0.0700525 55.59697036 -0.12296977 83.39553261 -0.15543652 C96.30261814 -0.17091145 109.20964886 -0.192013 122.11669922 -0.22631836 C133.36527206 -0.25620146 144.6138052 -0.27557045 155.86241663 -0.28226548 C161.81955845 -0.28617957 167.77658671 -0.29539137 173.73369217 -0.31719017 C179.33965213 -0.33753801 184.94545163 -0.34383719 190.55144501 -0.33932304 C192.60978187 -0.340149 194.66812404 -0.3461247 196.72642899 -0.35761642 C199.53588529 -0.37253374 202.34473509 -0.36895626 205.15420532 -0.36076355 C205.96939121 -0.36950207 206.7845771 -0.3782406 207.62446558 -0.38724393 C212.48443292 -0.34891601 215.7800088 0.33349692 220 3 C223.4351618 6.80653064 225.13093276 9.17708529 225.10235214 14.27309227 C225.09853818 15.62648911 225.09853818 15.62648911 225.09464717 17.0072273 C225.08675772 18.00486274 225.07886827 19.00249818 225.07073975 20.03036499 C225.06650537 21.08533066 225.06227099 22.14029634 225.0579083 23.22723067 C225.04801328 25.54967054 225.03580109 27.87210136 225.02162361 30.19451904 C224.99054948 35.2946107 224.97043758 40.3947311 224.94936895 45.49487233 C224.93801215 48.24284292 224.92581718 50.99080803 224.91299295 53.73877215 C224.866456 63.83964908 224.84125569 73.94043852 224.82891846 84.04141235 C224.82799638 84.7717859 224.8270743 85.50215946 224.82612428 86.25466554 C224.81768706 93.03963835 224.81062226 99.82461237 224.80426168 106.60958743 C224.79980998 111.26495387 224.79456457 115.92031888 224.78857422 120.57568359 C224.78709684 121.73560526 224.78709684 121.73560526 224.78558961 122.91895969 C224.76835291 135.43017853 224.70818504 147.94085515 224.63295457 160.45184354 C224.55674934 173.30258157 224.53019512 186.15275706 224.54848695 199.00371039 C224.55814449 206.92614574 224.52902649 214.8464732 224.44953486 222.76852401 C224.39257931 228.85127182 224.40447244 234.93193742 224.44149208 241.01491928 C224.44592648 243.50295788 224.42824796 245.9911529 224.38641167 248.47884369 C223.66289004 262.06449424 223.66289004 262.06449424 228.84635162 274.08308792 C231.93839606 277.21215634 235.33210473 279.58760674 239 282 C240.45948767 283.24551971 241.90378407 284.50983233 243.3125 285.8125 C245.2773532 287.5181598 247.25006437 289.2140902 249.2265625 290.90625 C249.95617187 291.5353125 250.68578125 292.164375 251.4375 292.8125 C252.09621094 293.37582031 252.75492188 293.93914062 253.43359375 294.51953125 C255.90452901 296.85490398 256.27005573 298.82529972 256.5 302.125 C256.40482838 307.10564825 254.73282966 309.36830186 251.30859375 312.84765625 C250.54675781 313.55792969 249.78492188 314.26820313 249 315 C248.10410156 315.84433594 247.20820313 316.68867188 246.28515625 317.55859375 C243.74561763 319.92407506 241.1718922 322.24952035 238.58935547 324.56787109 C236.00016071 326.90093046 233.43955989 329.26494255 230.875 331.625 C226.46288314 335.67436019 222.01949445 339.68763319 217.5625 343.6875 C214.69399591 346.27615003 211.8452335 348.88585146 209 351.5 C204.55268885 355.58610821 200.07802364 359.63983368 195.578125 363.66796875 C193.67838861 365.38636666 191.79486194 367.11620452 189.921875 368.86328125 C189.39464844 369.353125 188.86742187 369.84296875 188.32421875 370.34765625 C186.8330678 371.73520366 185.34609541 373.12723768 183.859375 374.51953125 C179.08180048 378.66401188 175.40056314 381.79899859 168.96484375 381.453125 C165.26610934 380.60013655 163.54813616 378.79673481 161 376 C160.06009534 372.61122093 159.88084854 369.42168741 159.90234375 365.91796875 C159.90556641 364.98662109 159.90878906 364.05527344 159.91210938 363.09570312 C159.92048828 362.13599609 159.92886719 361.17628906 159.9375 360.1875 C159.94201172 359.20845703 159.94652344 358.22941406 159.95117188 357.22070312 C159.96291316 354.81373889 159.97933581 352.40690143 160 350 C114.42790132 348.95496461 72.40801136 369.78511823 40 400.625 C30.38364428 410.47552022 22.4202899 421.98500264 14.98242188 433.5300293 C14.01029835 435.03447681 13.00844535 436.51965394 12 438 C11.67 438 11.34 438 11 438 C10.92287814 431.47542036 10.87095946 424.95096145 10.83520508 418.42602539 C10.82027351 416.21406666 10.79992089 414.0021367 10.77368164 411.7902832 C10.62024134 398.50716726 10.97930268 385.96529082 14 373 C14.21390381 372.0622876 14.42780762 371.1245752 14.64819336 370.15844727 C15.22249817 367.83044101 15.86408834 365.54354939 16.5625 363.25 C16.80500488 362.44143555 17.04750977 361.63287109 17.29736328 360.79980469 C20.49264513 350.71777337 25.27845691 341.44308618 30 332 C20.1 332 10.2 332 0 332 C-0.20324283 315.28405863 -0.36899344 298.56917304 -0.46630955 281.85233879 C-0.51269822 274.09023654 -0.5759274 266.32895696 -0.67895508 258.56738281 C-0.76872285 251.80151034 -0.82673783 245.03623362 -0.84679645 238.26978219 C-0.85852096 234.68732257 -0.88602288 231.10656709 -0.95157051 227.52465439 C-1.02419794 223.52332087 -1.02590581 219.52493975 -1.02172852 215.52294922 C-1.054086 214.3382756 -1.08644348 213.15360199 -1.11978149 211.93302917 C-1.03090914 204.07677812 -1.03090914 204.07677812 1.93535328 200.97853565 C4.23157217 199.42405365 6.49914991 198.19064018 9 197 C10.30553781 196.22968324 11.60552041 195.44974077 12.89575195 194.65405273 C14.17532069 193.91169881 15.45619262 193.17158714 16.73828125 192.43359375 C18.14933674 191.61045137 19.56013686 190.78687108 20.97070312 189.96289062 C23.15148335 188.6924734 25.33387716 187.42518421 27.52075195 186.1652832 C29.66108109 184.9302854 31.79383447 183.68299158 33.92578125 182.43359375 C34.90240471 181.87713417 34.90240471 181.87713417 35.89875793 181.30943298 C40.45452436 178.62170979 43.62234681 175.75530637 46 171 C46.27468266 168.76482384 46.27468266 168.76482384 46.3125 166.25 C46.34988281 165.40953125 46.38726562 164.5690625 46.42578125 163.703125 C45.66614087 158.88045397 43.0247692 155.7689986 39.18188477 152.88525391 C38.11252686 152.25538574 37.04316895 151.62551758 35.94140625 150.9765625 C35.35640854 150.62669281 34.77141083 150.27682312 34.16868591 149.91635132 C32.30710373 148.80661691 30.43542449 147.71545933 28.5625 146.625 C27.34105851 145.90228811 26.12034888 145.17833783 24.90039062 144.453125 C22.47942737 143.01522151 20.0553607 141.58276372 17.62939453 140.15332031 C1.78917297 130.78917297 1.78917297 130.78917297 0 129 C-0.09614133 127.32975331 -0.12187722 125.65541724 -0.12025452 123.98240662 C-0.12162918 122.89560608 -0.12300385 121.80880554 -0.12442017 120.68907166 C-0.11902725 118.88509666 -0.11902725 118.88509666 -0.11352539 117.04467773 C-0.11367142 115.78632111 -0.11381744 114.52796448 -0.1139679 113.23147583 C-0.11425585 109.77088747 -0.10835949 106.31033348 -0.10139394 102.84975314 C-0.09516003 99.23691909 -0.09455657 95.62408433 -0.09336853 92.01124573 C-0.09025532 85.16536492 -0.08204208 78.3195 -0.07201904 71.4736262 C-0.06085757 63.68173411 -0.05534737 55.88984127 -0.05032361 48.09794319 C-0.03985946 32.06528614 -0.02226023 16.0326451 0 0 Z " fill="#FE4E51" transform="translate(256,37)"/>
<path d="M0 0 C4.42901995 2.60672564 8.15539694 5.79798172 11.875 9.3125 C12.93165371 10.29625859 13.98894544 11.27933233 15.046875 12.26171875 C15.55412109 12.73399902 16.06136719 13.2062793 16.58398438 13.69287109 C19.01507897 15.93702289 21.51704165 18.09743283 24.015625 20.265625 C26.32149035 22.28098763 28.59939131 24.32553876 30.875 26.375 C31.71675781 27.13296875 32.55851563 27.8909375 33.42578125 28.671875 C35.13620501 30.21878328 36.84198146 31.77084631 38.54296875 33.328125 C43.12517675 37.50539369 47.78410317 41.43074527 52.71484375 45.1875 C56.14515123 47.90829089 59.35579073 50.85555106 62.58984375 53.8046875 C64.74766092 55.77015468 66.92608086 57.70578682 69.125 59.625 C70.07439453 60.45451172 70.07439453 60.45451172 71.04296875 61.30078125 C72.43721509 62.51135442 73.83617247 63.71651079 75.23828125 64.91796875 C75.96402344 65.54316406 76.68976563 66.16835938 77.4375 66.8125 C78.09621094 67.37582031 78.75492188 67.93914062 79.43359375 68.51953125 C81.90452901 70.85490398 82.27005573 72.82529972 82.5 76.125 C82.40482838 81.10564825 80.73282966 83.36830186 77.30859375 86.84765625 C76.54675781 87.55792969 75.78492188 88.26820313 75 89 C74.10410156 89.84433594 73.20820313 90.68867188 72.28515625 91.55859375 C69.74561763 93.92407506 67.1718922 96.24952035 64.58935547 98.56787109 C62.00016071 100.90093046 59.43955989 103.26494255 56.875 105.625 C52.46288314 109.67436019 48.01949445 113.68763319 43.5625 117.6875 C40.69399591 120.27615003 37.8452335 122.88585146 35 125.5 C30.55268885 129.58610821 26.07802364 133.63983368 21.578125 137.66796875 C19.67838861 139.38636666 17.79486194 141.11620452 15.921875 142.86328125 C15.39464844 143.353125 14.86742187 143.84296875 14.32421875 144.34765625 C12.8330678 145.73520366 11.34609541 147.12723768 9.859375 148.51953125 C5.08180048 152.66401188 1.40056314 155.79899859 -5.03515625 155.453125 C-8.73389066 154.60013655 -10.45186384 152.79673481 -13 150 C-13.93990466 146.61122093 -14.11915146 143.42168741 -14.09765625 139.91796875 C-14.09443359 138.98662109 -14.09121094 138.05527344 -14.08789062 137.09570312 C-14.07951172 136.13599609 -14.07113281 135.17628906 -14.0625 134.1875 C-14.05798828 133.20845703 -14.05347656 132.22941406 -14.04882812 131.22070312 C-14.03708684 128.81373889 -14.02066419 126.40690143 -14 124 C-59.57209868 122.95496461 -101.59198864 143.78511823 -134 174.625 C-143.61635572 184.47552022 -151.5797101 195.98500264 -159.01757812 207.5300293 C-159.98970165 209.03447681 -160.99155465 210.51965394 -162 212 C-162.33 212 -162.66 212 -163 212 C-163.07712186 205.47542036 -163.12904054 198.95096145 -163.16479492 192.42602539 C-163.17972649 190.21406666 -163.20007911 188.0021367 -163.22631836 185.7902832 C-163.37975866 172.50716726 -163.02069732 159.96529082 -160 147 C-159.78609619 146.0622876 -159.57219238 145.1245752 -159.35180664 144.15844727 C-158.77750183 141.83044101 -158.13591166 139.54354939 -157.4375 137.25 C-157.19499512 136.44143555 -156.95249023 135.63287109 -156.70263672 134.79980469 C-153.51839911 124.75262111 -148.78486528 115.3652734 -144 106 C-143.34 106 -142.68 106 -142 106 C-141.64228516 104.96552734 -141.64228516 104.96552734 -141.27734375 103.91015625 C-139.75775712 100.44810108 -137.76292276 97.4890417 -135.5625 94.4375 C-135.12510498 93.8283374 -134.68770996 93.2191748 -134.23706055 92.59155273 C-129.6159813 86.28352979 -124.4199698 80.62227039 -119 75 C-118.40832031 74.35675781 -117.81664062 73.71351563 -117.20703125 73.05078125 C-99.33227177 54.11677677 -73.82649515 41.71755448 -48.9375 35.3125 C-48.11024414 35.09762939 -47.28298828 34.88275879 -46.43066406 34.66137695 C-37.77840639 32.51887235 -29.26883066 31.8278038 -20.375 31.9375 C-19.65699219 31.94201172 -18.93898438 31.94652344 -18.19921875 31.95117188 C-16.46610792 31.96272595 -14.7330413 31.98064842 -13 32 C-13.02094727 31.23856689 -13.04189453 30.47713379 -13.06347656 29.69262695 C-13.14677795 26.23271968 -13.19870584 22.77302362 -13.25 19.3125 C-13.28351563 18.11431641 -13.31703125 16.91613281 -13.3515625 15.68164062 C-13.36445313 14.52470703 -13.37734375 13.36777344 -13.390625 12.17578125 C-13.41157227 11.11270752 -13.43251953 10.04963379 -13.45410156 8.9543457 C-12.88919206 5.27909306 -11.55493697 3.64728766 -9 1 C-5.89046621 -0.5547669 -3.43733239 -0.28644437 0 0 Z " fill="#00DCBF" transform="translate(430,263)"/>
<path d="M0 0 C7.40284778 3.75059364 14.56621218 7.79718004 21.67724609 12.07275391 C22.8280343 12.76059676 23.97908335 13.44800335 25.13037109 14.13500977 C26.95768662 15.22570154 28.78470491 16.31687274 30.61071777 17.40974426 C35.3690111 20.25747004 40.13827588 23.08628012 44.91162109 25.90869141 C46.34361068 26.7560639 47.77557693 27.60347584 49.20751953 28.45092773 C51.29211954 29.68463214 53.3769033 30.91801639 55.46252441 32.1499939 C59.22505592 34.37339718 62.98151991 36.60627595 66.72558594 38.86065674 C68.37034913 39.85099532 70.0178909 40.8367147 71.66552734 41.82226562 C72.63876953 42.4192627 73.61201172 43.01625977 74.61474609 43.63134766 C75.45392578 44.14238037 76.29310547 44.65341309 77.15771484 45.17993164 C80.33013662 47.56368445 82.6514603 50.33368232 84.42724609 53.88525391 C84.9527032 58.67466621 84.95328664 62.69594485 82.98974609 67.13525391 C75.80500255 74.8457104 65.26712683 79.62309581 56.23974609 84.94775391 C54.80724575 85.79511362 53.374874 86.64269075 51.94262695 87.49047852 C48.41426005 89.57830189 44.88427261 91.66336662 41.35375977 93.74755859 C38.58031422 95.3854063 35.80845097 97.02592375 33.03662109 98.66650391 C29.46528454 100.77987107 25.89243257 102.8906275 22.31787109 104.99853516 C19.01202347 106.94798587 15.71043208 108.90438966 12.41162109 110.86572266 C10.85433869 111.78891536 9.2970475 112.71209325 7.73974609 113.63525391 C7.03793213 114.05427979 6.33611816 114.47330566 5.61303711 114.9050293 C0.30767734 118.04355164 -3.34930465 119.49739646 -9.57275391 118.88525391 C-14.06878046 117.04559533 -16.8593385 115.23741028 -19.15881348 110.87915039 C-21.01783127 106.35290143 -21.00878413 102.04371746 -20.99267578 97.20556641 C-21.00114532 96.25993835 -21.00961487 95.3143103 -21.01834106 94.34002686 C-21.04164368 91.22996386 -21.04273496 88.12039741 -21.04150391 85.01025391 C-21.04860848 82.83984175 -21.05630792 80.66943147 -21.0645752 78.49902344 C-21.07800377 73.9564898 -21.07959555 69.41412993 -21.07373047 64.87158203 C-21.06782971 59.05749915 -21.09844981 53.24424996 -21.13884735 47.43032837 C-21.16472274 42.95039394 -21.167602 38.47066047 -21.16395569 33.99066162 C-21.16564643 31.84728903 -21.17528446 29.70390712 -21.19309998 27.56060791 C-21.2152908 24.56148727 -21.2055873 21.56405736 -21.18798828 18.56494141 C-21.20125153 17.68473328 -21.21451477 16.80452515 -21.22817993 15.89764404 C-21.1473515 9.95497541 -19.77432449 6.17153119 -15.57275391 1.88525391 C-10.42210425 -1.58583608 -5.82907867 -2.52567596 0 0 Z " fill="#EDEEF2" transform="translate(218.57275390625,144.11474609375)"/>
<path d="M0 0 C8.98060799 5.13177599 17.94016833 10.25959344 26.79931641 15.59204102 C28.03197891 16.33167149 29.26707604 17.06725737 30.50439453 17.79907227 C32.33407571 18.88167732 34.15592229 19.97649415 35.9765625 21.07421875 C37.03955566 21.70932373 38.10254883 22.34442871 39.19775391 22.9987793 C42.67421609 25.48149061 45.08753496 28.17506992 47 32 C47.52545711 36.7894123 47.52604054 40.81069094 45.5625 45.25 C38.63181019 52.68781346 28.46075324 57.37687779 19.7590332 62.51538086 C17.54164464 63.82481572 15.32632091 65.1376892 13.11132812 66.45117188 C11.70063703 67.28665455 10.28983388 68.12194807 8.87890625 68.95703125 C7.88679893 69.54445854 7.88679893 69.54445854 6.87464905 70.14375305 C2.23588493 72.88205754 2.23588493 72.88205754 0 74 C0 49.58 0 25.16 0 0 Z " fill="#DADFE6" transform="translate(256,166)"/>
</svg>
